<?xml version="1.0" encoding="utf-8"?>
<!-- Generator: Adobe Illustrator 13.0.2, SVG Export Plug-In . SVG Version: 6.00 Build 14948)  -->
<!DOCTYPE svg PUBLIC "-//W3C//DTD SVG 1.0//EN" "http://www.w3.org/TR/2001/REC-SVG-20010904/DTD/svg10.dtd">
<svg version="1.0" id="svg2450" xmlns:svg="http://www.w3.org/2000/svg"
	 xmlns="http://www.w3.org/2000/svg" xmlns:xlink="http://www.w3.org/1999/xlink" x="0px" y="0px" width="750px" height="600px"
	 viewBox="0 0 750 600" enable-background="new 0 0 750 600" xml:space="preserve">
<path id="path2477" display="none" stroke="#000000" d="M49.593,600C12.022,606.012,0.375,584.248,0,550.406V50
	C0.264,7.307,22.978,0.532,49.593,0H700c37.995,1.025,51.967,19.669,50,50v500.406c0.615,41.014-18.66,53.851-50,49.594H49.593z"/>
<path id="path2475" fill="#FFFFFF" stroke="#000000" stroke-width="9" d="M376,580C120.06,566.767,10.515,350.74,13,201
	c12.291-80.783,8.979-175.453,363-182c278.934,9.316,346.072,47.834,359,182C734.634,336.588,649.045,559.114,376,580z"/>
<path id="text3960" d="M108.247,397.758c0.572-9.814,1.22-18.33,1.942-25.55c0.722-7.22,1.588-13.714,2.597-19.484
	c1.008-5.771,2.308-11.327,3.898-16.669c1.59-5.344,3.539-11.191,5.847-17.543c11.84-30.304,27.428-54.406,46.765-72.307
	c1.735-1.444,3.542-2.959,5.418-4.545s4.185-3.39,6.924-5.411c2.74-2.022,6.059-4.475,9.957-7.36
	c3.898-2.885,8.732-6.349,14.503-10.393c9.531-6.642,15.956-12.271,19.272-16.888c3.317-4.616,4.975-10.531,4.975-17.747
	c0-5.488-1.082-10.686-3.244-15.592s-5.048-9.237-8.655-12.99c-3.607-3.752-7.937-6.712-12.989-8.88
	c-5.052-2.167-10.323-3.25-15.811-3.25c-5.771,0-11.109,1.083-16.016,3.25c-4.907,2.167-9.167,5.127-12.778,8.88
	c-3.612,3.753-6.5,8.083-8.662,12.99s-3.244,10.104-3.244,15.592h-40.699c0.282-11.258,2.517-21.867,6.706-31.826
	c4.189-9.958,9.891-18.621,17.105-25.985c7.215-7.364,15.729-13.139,25.543-17.324c9.813-4.184,20.495-6.276,32.044-6.277
	c11.258,0,21.724,2.166,31.396,6.495c9.673,4.33,18.189,10.175,25.55,17.535c7.36,7.36,13.132,15.949,17.317,25.767
	c4.184,9.818,6.276,20.357,6.277,31.615c0,23.09-8.229,42.14-24.684,57.151c-1.445,1.154-2.96,2.235-4.546,3.244
	c-1.585,1.009-3.101,2.235-4.545,3.68l-9.963,7.36l-10.386,6.938l-11.259,8.219c-4.616,3.462-9.162,7.576-13.637,12.342
	c-4.475,4.766-8.805,9.964-12.99,15.593c-4.185,5.629-7.864,11.546-11.04,17.753c-3.176,6.206-5.777,12.34-7.803,18.4
	c-1.727,3.753-2.951,7.145-3.673,10.175c-0.723,3.03-1.661,7.145-2.814,12.343h117.341v40.699H108.247z M296.178,397.758
	c0.573-9.814,1.22-18.33,1.943-25.55c0.722-7.22,1.588-13.714,2.596-19.484c1.009-5.771,2.308-11.327,3.898-16.669
	c1.59-5.344,3.539-11.191,5.848-17.543c11.839-30.304,27.428-54.406,46.765-72.307c1.735-1.444,3.541-2.959,5.417-4.545
	c1.877-1.586,4.185-3.39,6.925-5.411c2.739-2.022,6.059-4.475,9.957-7.36c3.897-2.885,8.731-6.349,14.502-10.393
	c9.532-6.642,15.956-12.271,19.272-16.888c3.317-4.616,4.976-10.531,4.976-17.747c0-5.488-1.081-10.686-3.244-15.592
	s-5.048-9.237-8.655-12.99c-3.607-3.752-7.938-6.712-12.989-8.88c-5.053-2.167-10.322-3.25-15.811-3.25
	c-5.771,0-11.109,1.083-16.016,3.25c-4.907,2.167-9.166,5.127-12.778,8.88c-3.611,3.753-6.499,8.083-8.662,12.99
	c-2.162,4.907-3.244,10.104-3.244,15.592h-40.699c0.282-11.258,2.518-21.867,6.707-31.826c4.189-9.958,9.89-18.621,17.106-25.985
	c7.215-7.364,15.729-13.139,25.542-17.324c9.814-4.184,20.495-6.276,32.045-6.277c11.258,0,21.724,2.166,31.396,6.495
	c9.673,4.33,18.189,10.175,25.55,17.535c7.359,7.36,13.132,15.949,17.316,25.767c4.185,9.818,6.277,20.357,6.277,31.615
	c0,23.09-8.229,42.14-24.685,57.151c-1.444,1.154-2.96,2.235-4.545,3.244c-1.586,1.009-3.102,2.235-4.546,3.68l-9.964,7.36
	l-10.386,6.938l-11.259,8.219c-4.616,3.462-9.162,7.576-13.637,12.342c-4.476,4.766-8.806,9.964-12.989,15.593
	c-4.185,5.629-7.865,11.546-11.041,17.753c-3.176,6.206-5.776,12.34-7.803,18.4c-1.727,3.753-2.951,7.145-3.674,10.175
	c-0.722,3.03-1.66,7.145-2.814,12.343h117.342v40.699H296.178z M643.33,148.354c-12.985,14.721-24.529,31.39-34.634,50.009
	s-19.196,39.618-27.274,62.998c-7.796,22.226-13.428,43.948-16.894,65.166c-3.467,21.217-5.777,44.961-6.932,71.23h-40.699v-6.066
	c0-7.215,0.434-15.586,1.302-25.113s2.095-19.413,3.68-29.658c1.586-10.246,3.39-20.637,5.412-31.172
	c2.021-10.537,4.332-20.57,6.931-30.103c3.171-11.54,6.561-22.578,10.168-33.114s7.648-20.856,12.124-30.961
	c4.475-10.104,9.454-20.281,14.938-30.531c5.483-10.249,11.838-21.145,19.062-32.685H481.392v-40.713H643.33V148.354L643.33,148.354
	z"/>
</svg>
