<?xml version="1.0" encoding="utf-8"?>
<!-- Generator: Adobe Illustrator 13.0.2, SVG Export Plug-In . SVG Version: 6.00 Build 14948)  -->
<!DOCTYPE svg PUBLIC "-//W3C//DTD SVG 1.0//EN" "http://www.w3.org/TR/2001/REC-SVG-20010904/DTD/svg10.dtd">
<svg version="1.0"
	 id="svg2450" inkscape:version="0.46" xmlns:dc="http://purl.org/dc/elements/1.1/" xmlns:cc="http://creativecommons.org/ns#" xmlns:rdf="http://www.w3.org/1999/02/22-rdf-syntax-ns#" xmlns:svg="http://www.w3.org/2000/svg" xmlns:sodipodi="http://sodipodi.sourceforge.net/DTD/sodipodi-0.dtd" sodipodi:version="0.32" sodipodi:docname="OR_230.svg" xmlns:inkscape="http://www.inkscape.org/namespaces/inkscape" inkscape:output_extension="org.inkscape.output.svg.inkscape"
	 xmlns="http://www.w3.org/2000/svg" xmlns:xlink="http://www.w3.org/1999/xlink" x="0px" y="0px" width="750px" height="600px"
	 viewBox="0 0 750 600" enable-background="new 0 0 750 600" xml:space="preserve">
<sodipodi:namedview  id="base" inkscape:current-layer="svg2450" bordercolor="#666666" borderopacity="1.0" inkscape:cx="375" inkscape:cy="296.73245" inkscape:pageopacity="0.0" inkscape:window-height="835" inkscape:pageshadow="2" inkscape:window-width="1012" inkscape:window-x="96" inkscape:window-y="21" inkscape:zoom="0.72533333" pagecolor="#ffffff" showgrid="false" guidetolerance="10.0" objecttolerance="10.0" gridtolerance="10.0">
	</sodipodi:namedview>
<defs  display="none">
	
	
		<inkscape:perspective  id="perspective2454" sodipodi:type="inkscape:persp3d" inkscape:vp_x="0 : 300 : 1" inkscape:vp_y="0 : 1000 : 0" inkscape:persp3d-origin="375 : 200 : 1" inkscape:vp_z="750 : 300 : 1">
		</inkscape:perspective>
</defs>
<path id="path2477" display="none" stroke="#000000" d="M49.593,600C12.022,606.012,0.375,584.248,0,550.406V50
	C0.264,7.307,22.978,0.532,49.593,0H700c37.995,1.025,51.967,19.669,50,50v500.406c0.615,41.014-18.66,53.851-50,49.594H49.593z"/>
<path id="path2475" fill="#FFFFFF" stroke="#000000" stroke-width="9" d="M376,580C120.06,566.767,10.515,350.74,13,201
	c12.291-80.783,8.979-175.453,363-182c278.934,9.316,346.072,47.834,359,182C734.634,336.588,649.045,559.114,376,580z"/>
<path id="text3960" d="M113.75,400.515c0.573-9.813,1.22-18.33,1.942-25.55c0.723-7.219,1.588-13.714,2.597-19.484
	c1.009-5.77,2.308-11.326,3.898-16.669c1.59-5.343,3.539-11.19,5.847-17.542c11.84-30.304,27.428-54.407,46.765-72.308
	c1.735-1.444,3.542-2.959,5.418-4.545c1.876-1.585,4.184-3.389,6.924-5.411s6.059-4.475,9.957-7.36
	c3.898-2.885,8.732-6.349,14.502-10.393c9.532-6.642,15.956-12.271,19.273-16.888c3.316-4.616,4.975-10.531,4.975-17.746
	c0-5.488-1.082-10.686-3.244-15.593c-2.163-4.907-5.048-9.236-8.655-12.99c-3.607-3.752-7.938-6.712-12.989-8.88
	c-5.053-2.167-10.323-3.25-15.811-3.25c-5.77,0-11.108,1.084-16.015,3.25c-4.907,2.167-9.167,5.127-12.778,8.88
	c-3.612,3.753-6.499,8.083-8.662,12.99c-2.163,4.907-3.244,10.104-3.244,15.593h-40.7c0.282-11.258,2.518-21.867,6.707-31.827
	c4.188-9.958,9.891-18.621,17.105-25.985c7.215-7.364,15.729-13.139,25.543-17.324c9.813-4.184,20.495-6.276,32.044-6.277
	c11.258,0,21.724,2.166,31.397,6.495c9.672,4.33,18.189,10.175,25.549,17.535c7.36,7.361,13.132,15.95,17.317,25.768
	c4.184,9.818,6.276,20.357,6.276,31.615c0,23.089-8.228,42.14-24.684,57.151c-1.445,1.154-2.96,2.235-4.546,3.244
	c-1.586,1.009-3.101,2.235-4.546,3.68l-9.963,7.36l-10.386,6.938l-11.258,8.219c-4.616,3.462-9.162,7.576-13.637,12.342
	c-4.475,4.766-8.805,9.964-12.989,15.593s-7.865,11.547-11.041,17.754c-3.176,6.205-5.777,12.34-7.803,18.4
	c-1.727,3.752-2.951,7.145-3.673,10.174c-0.723,3.031-1.661,7.145-2.815,12.343h117.341v40.699H113.75z M460.863,322.142
	c0,11.831-2.021,22.872-6.065,33.122c-4.044,10.249-9.6,19.127-16.67,26.633c-7.069,7.506-15.583,13.35-25.542,17.535
	c-9.96,4.184-20.714,6.276-32.263,6.276c-11.831,0-22.583-2.02-32.256-6.059c-9.673-4.04-18.044-9.669-25.113-16.888
	s-12.698-15.809-16.888-25.768c-4.188-9.959-6.569-20.854-7.142-32.686h40.7c1.153,11.832,5.411,21.572,12.771,29.223
	c7.36,7.652,16.669,11.477,27.928,11.477c11.84,0,21.583-4.113,29.229-12.342c7.646-8.228,11.47-18.402,11.47-30.524
	c0-7.796-1.009-15.086-3.025-21.869c-2.018-6.783-4.76-12.701-8.227-17.753c-3.466-5.052-7.438-9.021-11.912-11.906
	c-4.476-2.885-9.312-4.327-14.509-4.328H363v-39.84h17.323c5.197,0,9.168-0.865,11.912-2.597c2.744-1.731,5.848-4.618,9.31-8.662
	c8.369-9.232,12.554-20.054,12.554-32.467c0-11.258-3.104-20.208-9.31-26.851c-6.206-6.642-14.361-9.963-24.466-9.963
	c-9.232,0-16.52,2.672-21.862,8.014c-5.344,5.343-8.592,12.921-9.746,22.735l-40.699-5.193c1.154-9.532,3.751-18.409,7.79-26.633
	c4.039-8.223,9.234-15.222,15.586-20.997c6.352-5.774,13.714-10.322,22.087-13.644c8.374-3.321,17.321-4.981,26.845-4.982
	c10.396,0,20.065,1.877,29.012,5.629c8.945,3.753,16.667,9.021,23.164,15.804s11.622,14.723,15.375,23.818
	c3.753,9.096,5.629,18.837,5.629,29.223c0,12.13-1.949,23.391-5.847,33.782c-3.898,10.391-10.755,21.215-20.568,32.474
	c11.259,10.104,19.702,21.651,25.332,34.641C458.049,293.566,460.863,307.422,460.863,322.142L460.863,322.142z M656.467,255.027
	c0,22.226-1.227,41.133-3.68,56.722c-2.453,15.589-6.715,30.312-12.784,44.168c-7.216,17.319-16.234,29.948-27.057,37.885
	c-10.822,7.938-24.461,11.906-40.917,11.906c-17.319,0-31.393-3.969-42.219-11.906c-10.827-7.937-19.848-20.565-27.062-37.885
	c-6.062-14.147-10.318-28.943-12.771-44.386c-2.454-15.443-3.681-34.278-3.681-56.504c0-21.935,1.227-40.77,3.681-56.503
	c2.453-15.733,6.71-30.529,12.771-44.386c7.505-17.319,16.671-29.804,27.498-37.456c10.827-7.65,24.754-11.476,41.783-11.477
	c16.737,0,30.447,3.826,41.129,11.477c10.681,7.651,19.629,20.427,26.845,38.328c2.889,7.215,5.417,14.43,7.585,21.645
	c2.166,7.215,3.899,14.792,5.199,22.729c1.299,7.938,2.237,16.454,2.814,25.549C656.179,234.028,656.467,244.06,656.467,255.027
	L656.467,255.027z M616.627,255.027c0-8.087-0.216-15.449-0.647-22.087c-0.432-6.638-1.009-12.771-1.731-18.401
	c-0.723-5.629-1.66-11.04-2.814-16.233c-1.154-5.193-2.453-10.388-3.898-15.586c-3.753-12.994-8.443-22.378-14.072-28.153
	c-5.63-5.774-12.774-8.662-21.434-8.662c-17.901,0-30.168,11.981-36.802,35.942c-3.471,10.968-5.854,22.008-7.148,33.121
	c-1.295,11.113-1.942,24.752-1.942,40.917c0,7.796,0.216,14.943,0.647,21.44s1.009,12.56,1.73,18.189
	c0.723,5.629,1.661,11.186,2.815,16.67c1.153,5.483,2.453,11.11,3.897,16.881c6.634,23.961,18.9,35.941,36.802,35.941
	c8.659,0,15.804-2.887,21.434-8.661c5.629-5.774,10.319-14.868,14.072-27.28c1.727-5.771,3.169-11.324,4.328-16.664
	c1.158-5.338,2.097-10.895,2.814-16.669s1.222-11.91,1.513-18.407S616.627,263.396,616.627,255.027L616.627,255.027z"/>
</svg>
