<?xml version="1.0" encoding="utf-8"?>
<!-- Generator: Adobe Illustrator 13.0.2, SVG Export Plug-In . SVG Version: 6.00 Build 14948)  -->
<!DOCTYPE svg PUBLIC "-//W3C//DTD SVG 1.0//EN" "http://www.w3.org/TR/2001/REC-SVG-20010904/DTD/svg10.dtd">
<svg version="1.0" id="svg2450" xmlns:svg="http://www.w3.org/2000/svg"
	 xmlns="http://www.w3.org/2000/svg" xmlns:xlink="http://www.w3.org/1999/xlink" x="0" y="0" width="750" height="600"
	 viewBox="0 0 750 600" enable-background="new 0 0 750 600" xml:space="preserve">
<path id="path2477" display="none" stroke="#000000" d="M49.593,600C12.022,606.012,0.375,584.248,0,550.406V50
	C0.264,7.307,22.978,0.532,49.593,0H700c37.995,1.025,51.967,19.669,50,50v500.406c0.615,41.014-18.66,53.851-50,49.594H49.593z"/>
<path id="path2475" fill="#FFFFFF" stroke="#000000" stroke-width="9" d="M376,580C120.06,566.767,10.515,350.74,13,201
	c12.291-80.783,8.979-175.453,363-182c278.934,9.316,346.072,47.834,359,182C734.634,336.588,649.045,559.114,376,580z"/>
<path id="text3960" d="M112.116,395c0.573-9.813,1.22-18.33,1.943-25.549c0.722-7.22,1.588-13.715,2.596-19.484
	c1.009-5.771,2.308-11.327,3.898-16.67c1.59-5.343,3.539-11.19,5.847-17.542c11.84-30.304,27.428-54.407,46.765-72.308
	c1.735-1.444,3.542-2.96,5.418-4.545s4.184-3.389,6.924-5.411c2.739-2.022,6.059-4.475,9.957-7.36s8.732-6.349,14.502-10.393
	c9.532-6.642,15.956-12.271,19.273-16.888c3.316-4.616,4.975-10.531,4.975-17.747c0-5.488-1.082-10.686-3.244-15.592
	s-5.048-9.237-8.655-12.99c-3.607-3.752-7.938-6.712-12.989-8.88c-5.052-2.167-10.323-3.25-15.811-3.25
	c-5.77,0-11.108,1.083-16.015,3.25c-4.907,2.167-9.167,5.127-12.778,8.88c-3.612,3.753-6.499,8.083-8.662,12.99
	c-2.163,4.907-3.244,10.104-3.244,15.592h-40.7c0.282-11.258,2.518-21.867,6.707-31.826c4.188-9.958,9.891-18.621,17.105-25.985
	c7.215-7.364,15.729-13.139,25.543-17.324c9.813-4.184,20.495-6.276,32.044-6.277c11.258,0,21.724,2.166,31.397,6.495
	c9.672,4.33,18.189,10.175,25.549,17.535c7.36,7.361,13.133,15.95,17.317,25.768c4.184,9.818,6.276,20.356,6.276,31.615
	c0,23.09-8.228,42.14-24.684,57.151c-1.445,1.154-2.96,2.235-4.546,3.244c-1.586,1.009-3.101,2.236-4.545,3.68l-9.963,7.36
	l-10.387,6.938l-11.258,8.219c-4.616,3.462-9.162,7.576-13.637,12.342c-4.476,4.766-8.805,9.964-12.99,15.593
	c-4.185,5.63-7.865,11.547-11.041,17.753c-3.176,6.207-5.776,12.34-7.803,18.4c-1.727,3.754-2.951,7.145-3.673,10.176
	c-0.723,3.03-1.661,7.145-2.815,12.342h117.341V395H112.116z M456.472,316.627c0,11.831-2.021,22.871-6.065,33.121
	s-9.6,19.128-16.669,26.633c-7.07,7.506-15.584,13.352-25.543,17.535c-9.96,4.185-20.714,6.277-32.263,6.277
	c-11.831,0-22.583-2.02-32.256-6.059s-18.044-9.668-25.113-16.888s-12.699-15.809-16.888-25.768
	c-4.188-9.959-6.569-20.854-7.142-32.685h40.7c1.154,11.83,5.411,21.571,12.771,29.223c7.36,7.65,16.669,11.477,27.928,11.477
	c11.84,0,21.583-4.114,29.229-12.342c7.646-8.229,11.47-18.403,11.47-30.525c0-7.796-1.009-15.086-3.025-21.869
	c-2.018-6.783-4.76-12.701-8.227-17.753c-3.466-5.052-7.437-9.021-11.912-11.906c-4.476-2.885-9.312-4.328-14.509-4.328h-20.35
	v-39.84h17.323c5.197,0,9.168-0.865,11.912-2.597c2.744-1.731,5.848-4.618,9.31-8.662c8.369-9.232,12.554-20.054,12.554-32.467
	c0-11.258-3.104-20.208-9.31-26.851c-6.206-6.642-14.361-9.963-24.466-9.963c-9.232,0-16.52,2.671-21.862,8.014
	c-5.344,5.343-8.592,12.921-9.746,22.735l-40.699-5.193c1.154-9.532,3.751-18.41,7.79-26.633
	c4.039-8.223,9.234-15.222,15.586-20.997c6.352-5.774,13.714-10.322,22.087-13.644c8.374-3.321,17.321-4.981,26.845-4.982
	c10.396,0,20.065,1.877,29.012,5.629c8.945,3.753,16.667,9.021,23.164,15.804s11.622,14.723,15.375,23.818
	s5.629,18.837,5.629,29.223c0,12.13-1.949,23.391-5.847,33.782c-3.898,10.391-10.755,21.215-20.568,32.474
	c11.259,10.104,19.702,21.651,25.332,34.641C453.657,288.052,456.472,301.906,456.472,316.627L456.472,316.627z M640.267,309.703
	c0,13.857-2.453,27.062-7.36,39.615c-4.906,12.554-11.69,23.02-20.35,31.396c-12.703,12.986-30.313,19.479-52.83,19.479
	c-14.43,0-26.77-2.597-37.02-7.79c-10.249-5.192-18.981-12.842-26.196-22.946c-5.771-8.087-10.243-17.326-13.419-27.717
	s-4.764-21.069-4.764-32.037c0-14.438,2.237-27.792,6.713-40.059c4.475-12.267,11.328-23.021,20.561-32.263
	c-15.584-17.028-23.376-37.087-23.376-60.177c0-11.258,1.877-21.651,5.63-31.179s9.021-17.683,15.804-24.466
	s14.937-12.124,24.459-16.022c9.523-3.897,20.06-5.847,31.608-5.847c11.259,0,21.506,1.95,30.743,5.847
	c9.236,3.898,17.246,9.239,24.029,16.022s12.052,14.938,15.805,24.466c3.752,9.527,5.629,19.92,5.629,31.179
	c0,11.831-1.947,22.872-5.841,33.121c-3.894,10.25-9.739,19.269-17.535,27.056c9.232,8.66,16.158,19.269,20.779,31.826
	C637.956,281.766,640.267,295.265,640.267,309.703L640.267,309.703z M595.233,177.205c-0.001-10.686-3.392-19.493-10.175-26.422
	c-6.784-6.928-15.228-10.393-25.332-10.393c-10.677,0-19.479,3.464-26.408,10.393c-6.929,6.929-10.393,15.736-10.393,26.422
	c0,11.831,3.464,21.211,10.393,28.14s15.731,10.393,26.408,10.393c10.104,0,18.548-3.464,25.332-10.393
	C591.842,198.416,595.232,189.036,595.233,177.205L595.233,177.205z M600.426,309.703c0-15.883-3.753-28.514-11.258-37.892
	c-7.506-9.377-17.319-14.066-29.441-14.066s-21.936,4.689-29.44,14.066c-7.506,9.377-11.259,22.008-11.259,37.892
	c0,14.721,3.753,26.699,11.259,35.936c7.505,9.236,17.318,13.855,29.44,13.855s21.936-4.619,29.441-13.855
	C596.673,336.402,600.426,324.424,600.426,309.703L600.426,309.703z"/>
</svg>
