<?xml version="1.0" encoding="utf-8"?>
<!-- Generator: Adobe Illustrator 13.0.2, SVG Export Plug-In . SVG Version: 6.00 Build 14948)  -->
<!DOCTYPE svg PUBLIC "-//W3C//DTD SVG 1.0//EN" "http://www.w3.org/TR/2001/REC-SVG-20010904/DTD/svg10.dtd">
<svg version="1.0" id="svg2454" xmlns:svg="http://www.w3.org/2000/svg"
	 xmlns="http://www.w3.org/2000/svg" xmlns:xlink="http://www.w3.org/1999/xlink" x="0px" y="0px" width="600px" height="600px"
	 viewBox="0 0 600 600" enable-background="new 0 0 600 600" xml:space="preserve">
<path id="path2477" display="none" stroke="#000000" d="M51,600c-41.84,6.026-50.5-16.979-50-48V52C-1,15.333,15.667-1.333,51,2h500
	c43.416-2.215,51.57,20.46,50,50v500c0.667,36.667-16,53.333-50,50L51,600z"/>
<path id="path2479" fill="#FFFFFF" stroke="#000000" stroke-width="9" d="M300,585C36.435,509.723,1.805,275.125,8,187
	C19.689,87.154,66.064,15.144,300,10c203.547,7.282,273.304,55.352,292,177C597.495,321.139,534.104,520.157,300,585z"/>
<path id="text2695" d="M286.471,314.434c0,12.413-2.526,24.03-7.578,34.853c-5.053,10.822-11.981,20.204-20.786,28.146
	c-8.805,7.942-19.269,14.221-31.39,18.838c-12.122,4.615-25.111,6.924-38.968,6.924c-13.857,0-26.849-2.381-38.975-7.143
	s-22.589-11.328-31.39-19.702c-8.8-8.373-15.727-18.188-20.779-29.448c-5.052-11.258-7.579-23.379-7.579-36.365
	c0-20.208,2.669-40.271,8.008-60.189s12.915-38.971,22.729-57.158c9.813-18.187,21.576-35.002,35.288-50.445
	s28.941-28.793,45.688-40.052l23.375,38.968c-8.951,6.934-16.817,13.646-23.601,20.139c-6.783,6.493-12.989,13.203-18.619,20.132
	c-5.629,6.929-10.752,14.218-15.368,21.869c-4.616,7.651-9.091,16.093-13.426,25.325c8.378-1.436,14.802-2.299,19.273-2.59
	c4.471-0.291,9.596-0.436,15.375-0.436c13.276,0,25.904,2.311,37.885,6.931c11.981,4.621,22.517,10.9,31.608,18.837
	c9.091,7.938,16.235,17.319,21.433,28.146C283.872,290.838,286.471,302.312,286.471,314.434L286.471,314.434z M240.565,313.562
	c0-5.48-1.37-10.818-4.11-16.016s-6.49-9.673-11.251-13.426c-4.762-3.752-10.391-6.783-16.888-9.091
	c-6.497-2.308-13.353-3.462-20.568-3.462s-13.925,1.154-20.132,3.462c-6.206,2.309-11.692,5.339-16.458,9.091
	c-4.766,3.753-8.519,8.228-11.258,13.426s-4.11,10.536-4.11,16.016c0,5.778,1.37,11.265,4.11,16.457
	c2.74,5.193,6.492,9.739,11.258,13.638c4.766,3.897,10.252,7.001,16.458,9.31c6.207,2.308,12.917,3.461,20.132,3.461
	s13.998-1.153,20.35-3.461c6.352-2.309,11.908-5.412,16.67-9.31c4.761-3.898,8.584-8.444,11.47-13.638
	C239.122,324.827,240.565,319.341,240.565,313.562L240.565,313.562z M519.027,314.434c0,12.413-2.526,24.03-7.578,34.853
	c-5.053,10.822-11.981,20.204-20.786,28.146c-8.805,7.942-19.269,14.221-31.39,18.838c-12.122,4.615-25.111,6.924-38.969,6.924
	s-26.849-2.381-38.975-7.143c-12.127-4.762-22.59-11.328-31.391-19.702c-8.801-8.373-15.727-18.188-20.779-29.448
	c-5.052-11.258-7.578-23.379-7.578-36.365c0-20.208,2.669-40.271,8.008-60.189s12.915-38.971,22.729-57.158
	s21.576-35.002,35.288-50.445s28.941-28.793,45.688-40.052l23.376,38.968c-8.95,6.934-16.817,13.646-23.601,20.139
	c-6.783,6.493-12.989,13.203-18.618,20.132c-5.63,6.929-10.752,14.218-15.368,21.869c-4.616,7.651-9.092,16.093-13.426,25.325
	c8.378-1.436,14.802-2.299,19.272-2.59c4.471-0.291,9.596-0.436,15.375-0.436c13.275,0,25.904,2.311,37.885,6.931
	c11.98,4.621,22.517,10.9,31.608,18.837c9.091,7.938,16.235,17.319,21.434,28.146C516.429,290.838,519.027,302.312,519.027,314.434
	L519.027,314.434z M473.121,313.562c0-5.48-1.369-10.818-4.109-16.016c-2.739-5.198-6.49-9.673-11.252-13.426
	c-4.762-3.752-10.391-6.783-16.888-9.091c-6.497-2.308-13.353-3.462-20.567-3.462s-13.926,1.154-20.132,3.462
	c-6.206,2.309-11.692,5.339-16.458,9.091c-4.766,3.753-8.519,8.228-11.259,13.426c-2.739,5.198-4.109,10.536-4.109,16.016
	c0,5.778,1.37,11.265,4.109,16.457c2.74,5.193,6.493,9.739,11.259,13.638c4.766,3.897,10.252,7.001,16.458,9.31
	c6.206,2.308,12.917,3.461,20.132,3.461s13.998-1.153,20.35-3.461c6.352-2.309,11.908-5.412,16.67-9.31
	c4.761-3.898,8.584-8.444,11.47-13.638C471.679,324.827,473.121,319.341,473.121,313.562L473.121,313.562z"/>
</svg>
