<?xml version="1.0" encoding="utf-8"?>
<!-- Generator: Adobe Illustrator 13.0.2, SVG Export Plug-In . SVG Version: 6.00 Build 14948)  -->
<!DOCTYPE svg PUBLIC "-//W3C//DTD SVG 1.0//EN" "http://www.w3.org/TR/2001/REC-SVG-20010904/DTD/svg10.dtd">
<svg version="1.0"
	 id="svg2226" inkscape:output_extension="org.inkscape.output.svg.inkscape" xmlns:sodipodi="http://sodipodi.sourceforge.net/DTD/sodipodi-0.dtd" xmlns:cc="http://web.resource.org/cc/" sodipodi:version="0.32" xmlns:dc="http://purl.org/dc/elements/1.1/" inkscape:version="0.45.1" xmlns:inkscape="http://www.inkscape.org/namespaces/inkscape" sodipodi:docname="police.svg" sodipodi:docbase="/home/tweety/svn.openstreetmap.org/applications/share/map-icons/svg/public" xmlns:rdf="http://www.w3.org/1999/02/22-rdf-syntax-ns#" xmlns:svg="http://www.w3.org/2000/svg"
	 xmlns="http://www.w3.org/2000/svg" xmlns:xlink="http://www.w3.org/1999/xlink" x="0px" y="0px" width="32px" height="32px"
	 viewBox="0 0 32 32" enable-background="new 0 0 32 32" xml:space="preserve">
<sodipodi:namedview  height="32px" width="32px" id="base" inkscape:cy="13.752989" inkscape:cx="31.275442" inkscape:zoom="11.2" inkscape:pageopacity="0.0" objecttolerance="10" guidetolerance="10" gridtolerance="10000" inkscape:pageshadow="2" borderopacity="1.0" bordercolor="#666666" pagecolor="#ffffff" inkscape:window-y="151" inkscape:window-x="486" inkscape:window-height="820" inkscape:window-width="906" inkscape:current-layer="layer1" inkscape:document-units="px">
	</sodipodi:namedview>
<g id="layer1" transform="translate(-250.371, -512.489)" inkscape:groupmode="layer" inkscape:label="Layer 1">
	<path id="path2968" fill="#FFFFFF" stroke="#000000" d="M266.871,540c0.596-2.455,12.412-0.818,10.586-4.911
		c-5.588-12.523,0-14.731,0-14.731c-1.768-0.614-2.113-2.456-2.121-2.456c-5.291,2.456-8.465-2.455-8.465-2.455l0,0
		c0,0-3.129,4.911-8.482,2.455c-0.003,0-0.354,1.842-2.121,2.456c0,0,5.589,2.208,0,14.731
		C254.442,539.181,266.274,537.545,266.871,540z"/>
	<path id="path3435" fill="#0000FF" stroke="#000000" stroke-width="0.0159" d="M267.466,521.768l3.786,11.406l-9.914-7.049h12.253
		l-9.913,7.049L267.466,521.768z"/>
</g>
</svg>
