<?xml version="1.0" encoding="utf-8"?>
<!-- Generator: Adobe Illustrator 13.0.2, SVG Export Plug-In . SVG Version: 6.00 Build 14948)  -->
<!DOCTYPE svg PUBLIC "-//W3C//DTD SVG 1.1//EN" "http://www.w3.org/Graphics/SVG/1.1/DTD/svg11.dtd">
<svg version="1.1"
	 id="svg1386" inkscape:output_extension="org.inkscape.output.svg.inkscape" xmlns:sodipodi="http://sodipodi.sourceforge.net/DTD/sodipodi-0.dtd" xmlns:cc="http://web.resource.org/cc/" inkscape:version="0.45.1" xmlns:rdf="http://www.w3.org/1999/02/22-rdf-syntax-ns#" xmlns:inkscape="http://www.inkscape.org/namespaces/inkscape" xmlns:svg="http://www.w3.org/2000/svg" sodipodi:version="0.32" sodipodi:docname="Boort_Interstate_Highway_Sign.svg" xmlns:dc="http://purl.org/dc/elements/1.1/" sodipodi:docbase="C:\Documents and Settings\Robm\Desktop"
	 xmlns="http://www.w3.org/2000/svg" xmlns:xlink="http://www.w3.org/1999/xlink" x="0" y="0" width="248" height="250"
	 viewBox="8.5 12.5 248 250" enable-background="new 8.5 12.5 248 250" xml:space="preserve">
<g id="g2231" transform="translate(-0.6944445,-256.25)">
	<g id="g2178" transform="translate(-369.08568,67.68707)">
		<g id="g2075" transform="translate(199.6375,-71.7969)">
			<path id="rect1336" sodipodi:nodetypes="ccccc" fill="#FFFFFF" stroke="#000000" stroke-width="1.2744" d="M212.198,275.032
				c55.411,11.603,78.57,2.521,90.776-1.17c33.021,10.046,55.604,9.078,91.491,1.17c58.348,76.583,39.101,213.959-90.664,247.146
				C170.679,486.537,153.448,343.684,212.198,275.032z"/>
			<g id="g1343">
				<path id="path1339" sodipodi:nodetypes="cccc" fill="#325692" stroke="#000000" d="M193.948,332.288
					c101.339-1.831,116.428-0.446,218.571,0c16.385,53.802-4.375,155.357-109.643,180.357
					C192.666,485.333,179.634,374.308,193.948,332.288z"/>
				<path id="path1341" sodipodi:nodetypes="cccccc" fill="#BB273D" stroke="#000000" stroke-width="1.2744" d="M216.152,284.731
					c55.411,11.603,74.999,2.165,87.205-1.527c33.021,10.046,52.032,9.792,87.919,1.884c10.96,16.506,11.806,19.013,18.692,39.489
					l-212.928-0.558C203.204,303.736,207.045,296.956,216.152,284.731z"/>
			</g>
		</g>
		
			<path id="text2167" sodipodi:nodetypes="cccccccccccccccccccccccccccccccccccccccssscccccccccsssccccccscccsssssccsssssccsssscccssscscccccccccccccccccccccccccccccccccccccccccccc" fill="#FFFFFF" d="
			M421.311,221.915h4.664v27.009h-4.664V221.915 M429.963,221.713h5.209l6.579,18.525v-18.525h4.422v27.009h-5.209l-6.578-18.524
			v18.524h-4.422V221.713 M449.199,221.915h16.67v5.264h-5.997v21.745h-4.664v-21.745h-6.009V221.915 M467.462,221.915h12.587v5.264
			h-7.923v5.029h7.451v5.264h-7.451v6.187h8.189v5.265h-12.854V221.915 M491.855,233.89c0.977,0,1.676-0.271,2.096-0.814
			c0.428-0.542,0.642-1.435,0.642-2.677c0-1.23-0.214-2.11-0.642-2.641c-0.42-0.531-1.119-0.796-2.096-0.796h-1.962v6.929H491.855
			 M489.892,238.703v10.221h-4.665v-27.009h7.124c2.383,0,4.127,0.597,5.233,1.791c1.115,1.194,1.672,3.081,1.672,5.662
			c0,1.785-0.291,3.25-0.872,4.396c-0.573,1.146-1.441,1.99-2.604,2.533c0.638,0.217,1.207,0.711,1.708,1.483
			c0.509,0.76,1.021,1.917,1.539,3.474l2.532,7.67h-4.967l-2.205-6.712c-0.444-1.351-0.896-2.273-1.356-2.768
			c-0.453-0.495-1.058-0.742-1.817-0.742H489.892 M513.889,229.559c-0.466-1.39-0.352-1.815-0.794-2.227
			c-0.827-0.77-0.932-0.859-1.771-0.859c-1.115,0-1.938,0.229-2.471,0.688c-0.533,0.458-0.8,1.17-0.8,2.135
			c0,0.724,0.178,1.291,0.533,1.7c0.363,0.398,1.018,0.742,1.962,1.031l1.987,0.597c2.011,0.603,3.44,1.52,4.289,2.75
			c0.848,1.23,1.272,2.979,1.272,5.247c0,2.979-0.593,5.198-1.781,6.657c-1.179,1.447-2.984,2.171-5.415,2.171
			c-1.147,0-2.298-0.163-3.453-0.488c-1.155-0.326-5.078-2.217-4.572-7.336l4.932,0.06c-0.355,1.521,1.643,2.717,2.645,2.717
			c1.018,0,1.797-0.253,2.338-0.76c0.541-0.506,0.812-1.23,0.812-2.171c0-0.844-0.186-1.495-0.557-1.954
			c-0.363-0.458-1.094-0.869-2.193-1.23l-1.805-0.597c-1.81-0.579-3.134-1.501-3.974-2.768c-0.832-1.266-1.248-2.973-1.248-5.12
			c0-2.689,0.582-4.758,1.745-6.205s2.835-2.171,5.016-2.171c0.993,0,2.015,0.115,3.065,0.344c1.05,0.217,4.451,2.361,4.416,7.739
			 M520.046,221.915h16.67v5.264h-5.997v21.745h-4.664v-21.745h-6.009V221.915 M548.152,244.003h-7.293l-1.151,4.921h-4.688
			l6.699-27.009h5.561l6.699,27.009h-4.688L548.152,244.003 M542.591,237.996l3.958-0.143l-2.044-9.607L542.591,237.996
			 M552.271,221.915h16.67v5.264h-5.997v21.745h-4.664v-21.745h-6.009V221.915 M570.201,221.915h13.441v5.264h-8.777v5.029h8.305
			v5.264h-8.305v6.187h9.043v5.265h-13.708V221.915"/>
	</g>
	<path id="text2215" display="none" fill="#FFFFFF" d="M126.089,428.034v19.257H51.368c0.809-7.28,3.236-14.179,7.282-20.696
		c4.046-6.518,12.037-15.163,23.972-25.935c9.609-8.707,15.501-14.609,17.676-17.708c2.933-4.279,4.399-8.51,4.4-12.691
		c0-4.624-1.277-8.177-3.831-10.662c-2.554-2.484-6.082-3.726-10.583-3.726c-4.451,0-7.991,1.303-10.621,3.91
		c-2.63,2.607-4.147,6.936-4.551,12.986l-21.241-2.066c1.265-11.412,5.234-19.602,11.91-24.569
		c6.676-4.968,15.021-7.452,25.034-7.452c10.975,0,19.597,2.877,25.869,8.632c6.271,5.755,9.406,12.912,9.406,21.471
		c0,4.87-0.897,9.506-2.693,13.908s-4.64,9.014-8.534,13.834c-2.579,3.197-7.232,7.796-13.958,13.797
		c-6.726,6.001-10.987,9.985-12.782,11.953s-3.25,3.886-4.362,5.755H126.089z M140.882,419.475l21.241-2.14
		c0.607,4.673,2.402,8.375,5.386,11.104c2.984,2.73,6.423,4.095,10.317,4.095c4.45,0,8.218-1.758,11.303-5.275
		s4.627-8.817,4.627-15.9c0-6.64-1.53-11.621-4.59-14.941c-3.06-3.32-7.042-4.98-11.948-4.98c-6.12,0-11.606,2.631-16.461,7.895
		l-17.296-2.435l10.924-56.295h56.364v19.405h-40.206l-3.338,18.372c4.754-2.312,9.609-3.468,14.565-3.468
		c9.457,0,17.473,3.345,24.047,10.034c6.575,6.69,9.862,15.372,9.862,26.045c0,8.903-2.655,16.847-7.965,23.832
		c-7.232,9.542-17.271,14.314-30.116,14.314c-10.267,0-18.636-2.681-25.11-8.042C146.016,435.732,142.147,428.526,140.882,419.475
		L140.882,419.475z"/>
	<path id="text2215_1_" display="none" fill="#FFFFFF" d="M125.655,429.412v19.257H50.934c0.809-7.28,3.236-14.179,7.282-20.696
		c4.046-6.518,12.037-15.163,23.972-25.935c9.609-8.707,15.501-14.609,17.676-17.708c2.933-4.279,4.399-8.51,4.4-12.691
		c0-4.624-1.277-8.177-3.831-10.662c-2.554-2.484-6.082-3.726-10.583-3.726c-4.451,0-7.991,1.303-10.621,3.91
		c-2.63,2.607-4.147,6.936-4.551,12.986l-21.241-2.066c1.265-11.412,5.234-19.602,11.91-24.569
		c6.676-4.968,15.021-7.452,25.034-7.452c10.975,0,19.597,2.877,25.869,8.632c6.271,5.755,9.406,12.912,9.406,21.471
		c0,4.87-0.897,9.506-2.693,13.908s-4.64,9.014-8.534,13.834c-2.579,3.197-7.232,7.796-13.958,13.797
		c-6.726,6.001-10.987,9.985-12.782,11.953s-3.25,3.886-4.362,5.755H125.655z M140.448,420.853l21.241-2.14
		c0.607,4.673,2.402,8.375,5.386,11.104c2.984,2.73,6.423,4.095,10.317,4.095c4.45,0,8.218-1.758,11.303-5.275
		s4.627-8.817,4.627-15.9c0-6.64-1.53-11.621-4.59-14.941c-3.06-3.32-7.042-4.98-11.948-4.98c-6.12,0-11.606,2.631-16.461,7.895
		l-17.296-2.435l10.924-56.295h56.364v19.405h-40.206l-3.338,18.372c4.754-2.312,9.609-3.468,14.565-3.468
		c9.457,0,17.473,3.345,24.047,10.034c6.575,6.69,9.862,15.372,9.862,26.045c0,8.903-2.655,16.847-7.965,23.832
		c-7.232,9.542-17.271,14.314-30.116,14.314c-10.267,0-18.636-2.681-25.11-8.042C145.582,437.11,141.713,429.904,140.448,420.853
		L140.448,420.853z"/>
	<path id="path2300" sodipodi:nodetypes="ccsssssscccccccssscsscc" fill="#FFFFFF" d="M94.573,433.915l22.123-2.229
		c0.632,4.867,2.501,8.722,5.609,11.565c3.107,2.843,6.688,4.265,10.744,4.265c4.636,0,8.56-1.832,11.772-5.495
		c3.213-3.663,4.819-9.183,4.819-16.56c0-6.916-1.593-12.103-4.779-15.561c-3.188-3.458-7.335-5.187-12.444-5.187
		c-6.373,0-12.088,2.741-17.145,8.222l-18.013-2.536l11.377-58.631h58.702v20.209h-41.873l-3.477,19.134
		c4.951-2.408,10.008-3.612,15.169-3.612c9.85,0,18.198,3.484,25.046,10.451c6.847,6.967,10.271,16.009,10.271,27.125
		c0,9.272-2.765,17.546-8.296,24.82c-7.531,9.938-17.987,14.908-31.365,14.908c-10.692,0-19.41-2.792-26.151-8.376
		C99.92,450.846,95.89,443.341,94.573,433.915L94.573,433.915z"/>
</g>
</svg>
