<?xml version="1.0" encoding="utf-8"?>
<!-- Generator: Adobe Illustrator 13.0.2, SVG Export Plug-In . SVG Version: 6.00 Build 14948)  -->
<!DOCTYPE svg PUBLIC "-//W3C//DTD SVG 1.0//EN" "http://www.w3.org/TR/2001/REC-SVG-20010904/DTD/svg10.dtd">
<svg version="1.0" id="svg2450" xmlns:svg="http://www.w3.org/2000/svg"
	 xmlns="http://www.w3.org/2000/svg" xmlns:xlink="http://www.w3.org/1999/xlink" x="0" y="0" width="750" height="600"
	 viewBox="0 0 750 600" enable-background="new 0 0 750 600" xml:space="preserve">
<path id="path2477" display="none" stroke="#000000" d="M49.593,600C12.022,606.012,0.375,584.248,0,550.406V50
	C0.264,7.307,22.978,0.532,49.593,0H700c37.995,1.025,51.967,19.669,50,50v500.406c0.615,41.014-18.66,53.851-50,49.594H49.593z"/>
<path id="path2475" fill="#FFFFFF" stroke="#000000" stroke-width="9" d="M376,580C120.06,566.767,10.515,350.74,13,201
	c12.291-80.783,8.979-175.453,363-182c278.934,9.316,346.072,47.834,359,182C734.634,336.588,649.045,559.114,376,580z"/>
<path id="text3960" d="M152.938,403V164.855h-18.183v-31.608c8.369-0.581,15.08-2.603,20.132-6.065
	c5.052-3.461,9.164-8.228,12.335-14.297h27.724V403H152.938z M398.615,332.859V403h-41.559v-70.141h-120.38v-29.454l120.38-190.521
	h41.559v180.994h17.323v38.981H398.615z M357.057,185.205l-69.281,108.673h69.281V185.205z M638.979,257.513
	c0,22.226-1.227,41.133-3.68,56.722c-2.454,15.588-6.715,30.311-12.784,44.168c-7.216,17.319-16.234,29.947-27.057,37.885
	s-24.461,11.906-40.917,11.906c-17.319,0-31.393-3.969-42.22-11.906c-10.826-7.938-19.848-20.565-27.062-37.885
	c-6.061-14.148-10.317-28.943-12.771-44.387c-2.453-15.442-3.68-34.277-3.68-56.503c0-21.936,1.227-40.77,3.68-56.503
	c2.454-15.733,6.711-30.529,12.771-44.386c7.506-17.319,16.672-29.804,27.499-37.456c10.826-7.651,24.754-11.476,41.783-11.477
	c16.737,0,30.447,3.826,41.129,11.477c10.681,7.651,19.629,20.427,26.845,38.328c2.889,7.215,5.417,14.43,7.584,21.645
	c2.167,7.215,3.9,14.791,5.2,22.729c1.299,7.938,2.237,16.454,2.814,25.549S638.979,246.545,638.979,257.513L638.979,257.513z
	 M599.14,257.513c-0.001-8.087-0.216-15.449-0.647-22.087c-0.432-6.638-1.009-12.771-1.731-18.401
	c-0.723-5.629-1.661-11.04-2.814-16.233c-1.154-5.193-2.454-10.388-3.898-15.586c-3.753-12.994-8.443-22.378-14.073-28.153
	c-5.629-5.774-12.773-8.662-21.433-8.662c-17.901,0-30.168,11.981-36.802,35.942c-3.471,10.968-5.854,22.008-7.148,33.121
	c-1.295,11.113-1.942,24.752-1.942,40.917c0,7.796,0.216,14.943,0.647,21.44s1.009,12.56,1.73,18.189
	c0.723,5.629,1.661,11.186,2.814,16.669c1.154,5.484,2.454,11.111,3.898,16.881c6.634,23.962,18.9,35.943,36.802,35.943
	c8.659,0,15.804-2.888,21.433-8.662c5.63-5.775,10.32-14.868,14.073-27.281c1.727-5.77,3.169-11.324,4.328-16.662
	c1.158-5.339,2.097-10.896,2.814-16.67s1.222-11.91,1.513-18.407S599.139,265.882,599.14,257.513L599.14,257.513z"/>
</svg>
