<?xml version="1.0" encoding="utf-8"?>
<!-- Generator: Adobe Illustrator 13.0.2, SVG Export Plug-In . SVG Version: 6.00 Build 14948)  -->
<!DOCTYPE svg PUBLIC "-//W3C//DTD SVG 1.0//EN" "http://www.w3.org/TR/2001/REC-SVG-20010904/DTD/svg10.dtd">
<svg version="1.0" id="svg2450" xmlns:svg="http://www.w3.org/2000/svg"
	 xmlns="http://www.w3.org/2000/svg" xmlns:xlink="http://www.w3.org/1999/xlink" x="0" y="0" width="750" height="600"
	 viewBox="0 0 750 600" enable-background="new 0 0 750 600" xml:space="preserve">
<path id="path2477" display="none" stroke="#000000" d="M49.593,600C12.022,606.012,0.375,584.248,0,550.406V50
	C0.264,7.307,22.978,0.532,49.593,0H700c37.995,1.025,51.967,19.669,50,50v500.406c0.615,41.014-18.66,53.851-50,49.594H49.593z"/>
<path id="path2475" fill="#FFFFFF" stroke="#000000" stroke-width="9" d="M376,580C120.06,566.767,10.515,350.74,13,201
	c12.291-80.783,8.979-175.453,363-182c278.934,9.316,346.072,47.834,359,182C734.634,336.588,649.045,559.114,376,580z"/>
<path id="text3960" d="M105.571,400.515c0.572-9.813,1.22-18.33,1.942-25.55c0.722-7.219,1.588-13.714,2.597-19.484
	c1.008-5.77,2.308-11.326,3.898-16.669c1.59-5.343,3.539-11.19,5.847-17.542c11.84-30.304,27.428-54.407,46.765-72.308
	c1.735-1.444,3.542-2.959,5.418-4.545c1.876-1.585,4.185-3.389,6.924-5.411c2.739-2.022,6.059-4.475,9.957-7.36
	c3.898-2.885,8.732-6.349,14.502-10.393c9.532-6.642,15.956-12.271,19.273-16.888c3.316-4.616,4.975-10.531,4.975-17.746
	c0-5.488-1.082-10.686-3.244-15.593s-5.048-9.236-8.655-12.99c-3.607-3.752-7.938-6.712-12.989-8.88
	c-5.052-2.167-10.323-3.25-15.811-3.25c-5.771,0-11.109,1.084-16.016,3.25c-4.907,2.167-9.167,5.127-12.778,8.88
	c-3.612,3.753-6.499,8.083-8.662,12.99s-3.244,10.104-3.244,15.593h-40.699c0.282-11.258,2.517-21.867,6.706-31.827
	c4.189-9.958,9.891-18.621,17.105-25.985c7.215-7.364,15.729-13.139,25.543-17.324c9.813-4.184,20.495-6.276,32.044-6.277
	c11.258,0,21.724,2.166,31.396,6.495c9.672,4.33,18.189,10.175,25.549,17.535c7.36,7.361,13.133,15.95,17.317,25.768
	c4.184,9.818,6.276,20.357,6.276,31.615c0,23.089-8.228,42.14-24.684,57.151c-1.445,1.154-2.96,2.235-4.546,3.244
	c-1.586,1.009-3.101,2.235-4.545,3.68l-9.963,7.36l-10.387,6.938l-11.258,8.219c-4.616,3.462-9.162,7.576-13.637,12.342
	c-4.476,4.766-8.805,9.964-12.99,15.593s-7.865,11.547-11.04,17.754c-3.176,6.205-5.777,12.34-7.803,18.4
	c-1.727,3.752-2.951,7.145-3.673,10.174c-0.723,3.031-1.661,7.145-2.815,12.343H267.51v40.699H105.571z M452.684,322.142
	c0,11.831-2.021,22.872-6.065,33.122c-4.043,10.249-9.6,19.127-16.669,26.633c-7.07,7.506-15.584,13.35-25.543,17.535
	c-9.959,4.184-20.714,6.276-32.263,6.276c-11.831,0-22.583-2.02-32.256-6.059c-9.673-4.04-18.044-9.669-25.113-16.888
	s-12.699-15.809-16.887-25.768c-4.189-9.959-6.57-20.854-7.143-32.686h40.7c1.154,11.832,5.411,21.572,12.771,29.223
	c7.36,7.652,16.669,11.477,27.928,11.477c11.84,0,21.583-4.113,29.229-12.342c7.646-8.228,11.47-18.402,11.47-30.524
	c0-7.796-1.009-15.086-3.025-21.869c-2.018-6.783-4.76-12.701-8.226-17.753c-3.467-5.052-7.438-9.021-11.913-11.906
	c-4.476-2.885-9.312-4.327-14.509-4.328h-20.35v-39.84h17.323c5.197,0,9.168-0.865,11.913-2.597
	c2.743-1.731,5.847-4.618,9.309-8.662c8.369-9.232,12.554-20.054,12.554-32.467c0-11.258-3.104-20.208-9.31-26.851
	c-6.206-6.642-14.361-9.963-24.466-9.963c-9.232,0-16.52,2.672-21.862,8.014c-5.344,5.343-8.592,12.921-9.746,22.735l-40.699-5.193
	c1.154-9.532,3.75-18.409,7.79-26.633c4.039-8.223,9.234-15.222,15.586-20.997c6.352-5.774,13.714-10.322,22.087-13.644
	c8.374-3.321,17.322-4.981,26.845-4.982c10.396,0,20.065,1.877,29.012,5.629c8.946,3.753,16.667,9.021,23.164,15.804
	s11.622,14.723,15.375,23.818c3.753,9.096,5.629,18.837,5.629,29.223c0,12.13-1.949,23.391-5.847,33.782
	c-3.898,10.391-10.755,21.215-20.568,32.474c11.259,10.104,19.702,21.651,25.332,34.641
	C449.869,293.566,452.684,307.422,452.684,322.142L452.684,322.142z M636.519,330.374v70.141H594.96v-70.141H474.579V300.92
	L594.96,110.399h41.559v180.994h17.323v38.981H636.519z M594.96,182.72l-69.281,108.673h69.281V182.72z"/>
</svg>
