<?xml version="1.0" encoding="utf-8"?>
<!-- Generator: Adobe Illustrator 13.0.2, SVG Export Plug-In . SVG Version: 6.00 Build 14948)  -->
<!DOCTYPE svg PUBLIC "-//W3C//DTD SVG 1.0//EN" "http://www.w3.org/TR/2001/REC-SVG-20010904/DTD/svg10.dtd">
<svg version="1.0" id="svg2454" xmlns:svg="http://www.w3.org/2000/svg"
	 xmlns="http://www.w3.org/2000/svg" xmlns:xlink="http://www.w3.org/1999/xlink" x="0" y="0" width="600" height="600"
	 viewBox="0 0 600 600" enable-background="new 0 0 600 600" xml:space="preserve">
<path id="path2477" display="none" stroke="#000000" d="M51,600c-41.84,6.026-50.5-16.979-50-48V52C-1,15.333,15.667-1.333,51,2h500
	c43.416-2.215,51.57,20.46,50,50v500c0.667,36.667-16,53.333-50,50L51,600z"/>
<path id="path2479" fill="#FFFFFF" stroke="#000000" stroke-width="9" d="M300,585C36.435,509.723,1.805,275.125,8,187
	C19.689,87.154,66.064,15.144,300,10c203.547,7.282,273.304,55.352,292,177C597.495,321.139,534.104,520.157,300,585z"/>
<path id="text2695" d="M281.471,314.434c0,12.413-2.526,24.03-7.578,34.853c-5.053,10.822-11.981,20.204-20.786,28.146
	c-8.805,7.942-19.269,14.221-31.39,18.838c-12.122,4.615-25.111,6.924-38.968,6.924c-13.857,0-26.849-2.381-38.975-7.143
	s-22.589-11.328-31.39-19.702c-8.8-8.373-15.727-18.188-20.779-29.448c-5.052-11.258-7.579-23.379-7.579-36.365
	c0-20.208,2.669-40.271,8.008-60.189s12.915-38.971,22.729-57.158c9.813-18.187,21.576-35.002,35.288-50.445
	s28.941-28.793,45.688-40.052l23.375,38.968c-8.951,6.934-16.817,13.646-23.601,20.139c-6.783,6.493-12.989,13.203-18.619,20.132
	c-5.629,6.929-10.752,14.218-15.368,21.869c-4.616,7.651-9.091,16.093-13.426,25.325c8.378-1.436,14.802-2.299,19.273-2.59
	c4.471-0.291,9.596-0.436,15.375-0.436c13.276,0,25.904,2.311,37.885,6.931c11.981,4.621,22.517,10.9,31.608,18.837
	c9.091,7.938,16.235,17.319,21.433,28.146C278.872,290.838,281.471,302.312,281.471,314.434L281.471,314.434z M235.565,313.562
	c0-5.48-1.37-10.818-4.11-16.016s-6.49-9.673-11.251-13.426c-4.762-3.752-10.391-6.783-16.888-9.091
	c-6.497-2.308-13.353-3.462-20.568-3.462s-13.925,1.154-20.132,3.462c-6.206,2.309-11.692,5.339-16.458,9.091
	c-4.766,3.753-8.519,8.228-11.258,13.426s-4.11,10.536-4.11,16.016c0,5.778,1.37,11.265,4.11,16.457
	c2.74,5.193,6.492,9.739,11.258,13.638c4.766,3.897,10.252,7.001,16.458,9.31c6.207,2.308,12.917,3.461,20.132,3.461
	s13.998-1.153,20.35-3.461c6.352-2.309,11.908-5.412,16.67-9.31c4.761-3.898,8.584-8.444,11.47-13.638
	C234.122,324.827,235.565,319.341,235.565,313.562L235.565,313.562z M314.582,398c0.572-17.028,2.735-32.617,6.488-46.765
	s9.673-28.146,17.76-41.995c6.061-10.976,13.564-21.155,22.51-30.537c8.946-9.382,18.472-17.826,28.576-25.332
	c2.599-1.436,4.908-2.949,6.931-4.539c2.021-1.59,4.041-3.107,6.059-4.552l15.593-8.219l14.284-8.232l13.861-7.796
	c5.771-3.752,10.459-8.443,14.066-14.073s5.411-11.474,5.411-17.535c0-5.479-1.442-10.602-4.327-15.368
	c-2.886-4.766-6.709-8.879-11.47-12.342c-4.762-3.462-10.318-6.204-16.67-8.226c-6.352-2.021-13.135-3.032-20.35-3.032
	c-14.721,0-26.629,3.464-35.725,10.393c-9.096,6.929-14.797,17.031-17.105,30.307l-45.893-9.95
	c4.907-24.252,16.163-43.234,33.769-56.946c17.605-13.711,39.257-20.567,64.954-20.568c13.857,0,26.773,2.311,38.75,6.931
	s22.367,10.827,31.173,18.619c8.805,7.792,15.806,16.956,21.004,27.492c5.197,10.536,7.796,21.724,7.796,33.564
	c0,11.258-2.526,22.299-7.578,33.121c-5.053,10.823-12.34,20.422-21.863,28.8c-2.308,1.727-4.4,3.312-6.276,4.757
	c-1.877,1.445-3.828,2.599-5.854,3.462l-14.285,9.091l-15.592,8.232l-14.285,8.232c-6.933,4.035-13.068,8.29-18.407,12.765
	c-5.338,4.475-10.245,9.312-14.721,14.509c-4.475,5.198-8.661,10.973-12.56,17.323c-3.898,6.353-7.578,13.567-11.04,21.646h142.461
	V398H314.582z"/>
</svg>
