<?xml version="1.0" encoding="utf-8"?>
<!-- Generator: Adobe Illustrator 13.0.2, SVG Export Plug-In . SVG Version: 6.00 Build 14948)  -->
<!DOCTYPE svg PUBLIC "-//W3C//DTD SVG 1.0//EN" "http://www.w3.org/TR/2001/REC-SVG-20010904/DTD/svg10.dtd">
<svg version="1.0" id="svg2454" xmlns:svg="http://www.w3.org/2000/svg"
	 xmlns="http://www.w3.org/2000/svg" xmlns:xlink="http://www.w3.org/1999/xlink" x="0" y="0" width="600" height="600"
	 viewBox="0 0 600 600" enable-background="new 0 0 600 600" xml:space="preserve">
<path id="path2477" display="none" stroke="#000000" d="M51,600c-41.84,6.026-50.5-16.979-50-48V52C-1,15.333,15.667-1.333,51,2h500
	c43.416-2.215,51.57,20.46,50,50v500c0.667,36.667-16,53.333-50,50L51,600z"/>
<path id="path2479" fill="#FFFFFF" stroke="#000000" stroke-width="9" d="M300,585C36.435,509.723,1.805,275.125,8,187
	C19.689,87.154,66.064,15.144,300,10c203.547,7.282,273.304,55.352,292,177C597.495,321.139,534.104,520.157,300,585z"/>
<path id="text2695" d="M282.471,199.361c0,19.918-2.672,39.764-8.014,59.537c-5.343,19.773-12.921,38.752-22.735,56.94
	c-9.814,18.187-21.647,35.072-35.5,50.656c-13.853,15.584-29.152,29.15-45.899,40.699l-22.081-38.969
	c8.66-6.924,16.381-13.635,23.165-20.132c6.783-6.497,12.917-13.21,18.4-20.138c5.484-6.929,10.536-14.289,15.157-22.081
	s9.093-16.454,13.419-25.985c-8.369,1.444-14.791,2.456-19.266,3.032c-4.476,0.577-9.598,0.866-15.368,0.866
	c-13.566,0-26.34-2.308-38.321-6.924c-11.981-4.616-22.446-10.893-31.397-18.83c-8.95-7.937-16.022-17.319-21.215-28.146
	c-5.193-10.827-7.79-22.301-7.79-34.423c0-12.412,2.597-24.032,7.79-34.859c5.193-10.826,12.192-20.208,20.997-28.146
	c8.805-7.937,19.198-14.216,31.179-18.836c11.98-4.621,24.899-6.931,38.757-6.931c13.857,0,26.847,2.383,38.968,7.149
	c12.122,4.766,22.585,11.261,31.39,19.484s15.733,17.965,20.786,29.223C279.944,173.806,282.471,186.077,282.471,199.361
	L282.471,199.361z M236.565,195.463c0-5.488-1.443-10.831-4.328-16.029c-2.885-5.197-6.708-9.672-11.47-13.425
	c-4.762-3.752-10.318-6.783-16.67-9.091s-13.135-3.462-20.35-3.462s-13.925,1.083-20.132,3.25
	c-6.206,2.167-11.692,5.127-16.458,8.88c-4.766,3.753-8.519,8.226-11.258,13.419c-2.74,5.193-4.11,10.679-4.11,16.458
	c0,5.771,1.37,11.182,4.11,16.233c2.74,5.053,6.492,9.455,11.258,13.208c4.766,3.753,10.252,6.711,16.458,8.874
	c6.207,2.163,12.917,3.244,20.132,3.244s14.071-1.082,20.568-3.244c6.497-2.163,12.126-5.121,16.888-8.874
	c4.761-3.752,8.512-8.155,11.251-13.208C235.195,206.645,236.565,201.234,236.565,195.463L236.565,195.463z M511.027,199.361
	c0,19.918-2.672,39.764-8.015,59.537s-12.921,38.752-22.734,56.94c-9.814,18.187-21.647,35.072-35.5,50.656
	s-29.152,29.15-45.899,40.699l-22.08-38.969c8.659-6.924,16.381-13.635,23.164-20.132s12.917-13.21,18.4-20.138
	c5.483-6.929,10.536-14.289,15.156-22.081c4.621-7.792,9.094-16.454,13.419-25.985c-8.368,1.444-14.791,2.456-19.266,3.032
	c-4.476,0.577-9.598,0.866-15.368,0.866c-13.566,0-26.34-2.308-38.321-6.924c-11.98-4.616-22.446-10.893-31.396-18.83
	c-8.95-7.937-16.022-17.319-21.215-28.146c-5.193-10.827-7.79-22.301-7.79-34.423c0-12.412,2.597-24.032,7.79-34.859
	c5.192-10.826,12.192-20.208,20.997-28.146c8.805-7.937,19.197-14.216,31.179-18.836c11.98-4.621,24.899-6.931,38.757-6.931
	c13.857,0,26.847,2.383,38.969,7.149c12.121,4.766,22.585,11.261,31.39,19.484s15.733,17.965,20.786,29.223
	C508.501,173.806,511.027,186.077,511.027,199.361L511.027,199.361z M465.121,195.463c0-5.488-1.442-10.831-4.327-16.029
	c-2.886-5.197-6.709-9.672-11.47-13.425c-4.762-3.752-10.318-6.783-16.67-9.091s-13.135-3.462-20.35-3.462
	s-13.926,1.083-20.132,3.25c-6.206,2.167-11.692,5.127-16.458,8.88c-4.766,3.753-8.519,8.226-11.259,13.419
	c-2.739,5.193-4.109,10.679-4.109,16.458c0,5.771,1.37,11.182,4.109,16.233c2.74,5.053,6.493,9.455,11.259,13.208
	c4.766,3.753,10.252,6.711,16.458,8.874s12.917,3.244,20.132,3.244s14.07-1.082,20.567-3.244s12.126-5.121,16.888-8.874
	c4.762-3.752,8.513-8.155,11.252-13.208C463.752,206.645,465.121,201.234,465.121,195.463L465.121,195.463z"/>
</svg>
